<?xml version="1.0" standalone="no"?>
<!DOCTYPE svg PUBLIC "-//W3C//DTD SVG 20010904//EN"
 "http://www.w3.org/TR/2001/REC-SVG-20010904/DTD/svg10.dtd">
<svg version="1.0" xmlns="http://www.w3.org/2000/svg"
 width="300.000000pt" height="300.000000pt" viewBox="0 0 300.000000 300.000000"
 preserveAspectRatio="xMidYMid meet">
<metadata>
Created by potrace 1.11, written by Peter Selinger 2001-2013
</metadata>
<g transform="translate(0.000000,300.000000) scale(0.100000,-0.100000)"
fill="#000000" stroke="none">
<path d="M0 1500 l0 -1500 1500 0 1500 0 0 1500 0 1500 -1500 0 -1500 0 0
-1500z m313 -122 l32 -32 -32 -9 c-25 -8 -35 -6 -48 7 -37 37 -75 12 -75 -49
0 -63 42 -88 74 -44 11 17 20 20 45 14 38 -8 38 -15 5 -54 -22 -27 -32 -31
-74 -31 -27 0 -60 5 -73 11 -53 24 -74 112 -40 169 21 37 47 48 106 49 42 1
53 -4 80 -31z m247 19 c63 -31 74 -135 19 -189 -23 -23 -36 -28 -78 -28 -62 0
-93 13 -114 50 -33 55 -13 144 37 169 29 14 106 13 136 -2z m206 -43 l39 -57
3 57 3 56 39 0 40 0 0 -115 0 -115 -38 0 c-35 0 -42 5 -80 57 l-42 57 0 -57 0
-57 -35 0 -35 0 0 115 0 115 34 0 c30 0 38 -7 72 -56z m338 35 c14 -11 26 -27
26 -35 0 -19 -57 -18 -77 1 -17 17 -44 17 -50 -1 -2 -7 17 -17 44 -23 88 -22
118 -77 68 -126 -20 -21 -34 -25 -79 -25 -69 0 -83 6 -101 41 -20 38 -20 39
18 39 21 0 36 -7 45 -20 14 -23 44 -26 61 -6 15 18 -1 31 -56 45 -43 12 -73
42 -73 72 0 31 48 59 100 59 33 0 55 -6 74 -21z m148 -60 c2 -65 7 -84 21 -93
12 -8 22 -8 35 0 13 9 18 28 20 93 l3 81 39 0 40 0 0 -62 c0 -80 -15 -133 -43
-153 -13 -9 -44 -15 -80 -15 -48 0 -62 4 -82 25 -23 22 -25 32 -25 115 l0 90
35 0 34 0 3 -81z m278 -4 l0 -85 55 0 c54 0 55 0 55 -30 l0 -30 -95 0 -95 0 0
115 0 115 40 0 40 0 0 -85z m338 58 c-3 -24 -8 -28 -40 -31 l-38 -3 0 -85 0
-84 -35 0 -35 0 0 85 0 85 -40 0 c-38 0 -40 2 -40 30 l0 30 116 0 115 0 -3
-27z m199 -78 c23 -55 42 -106 42 -112 2 -22 -67 -16 -79 7 -8 15 -21 20 -50
20 -30 0 -40 -5 -45 -20 -5 -15 -15 -20 -41 -20 -19 0 -34 3 -34 7 0 3 19 55
42 115 l42 109 41 -3 40 -3 42 -100z m178 50 c21 -30 42 -55 47 -55 4 0 8 25
8 55 l0 55 35 0 35 0 0 -115 0 -115 -37 0 c-35 0 -42 6 -78 56 l-40 56 -3 -56
-3 -56 -34 0 -35 0 0 115 0 115 34 0 c29 0 38 -7 71 -55z m368 23 l32 -32 -33
-9 c-25 -8 -36 -6 -50 7 -23 20 -41 20 -64 -1 -20 -18 -24 -64 -8 -94 14 -25
55 -24 74 2 11 17 20 20 45 14 39 -8 39 -19 2 -56 -25 -25 -37 -29 -85 -29
-78 0 -107 26 -114 103 -7 91 25 125 121 126 42 1 53 -4 80 -31z m146 -5 c22
-34 25 -36 35 -19 29 49 41 58 79 54 l37 -3 -45 -64 c-38 -55 -45 -72 -45
-113 l0 -48 -40 0 -40 0 0 51 c0 44 -6 59 -46 115 l-46 64 44 0 c39 0 45 -4
67 -37z"/>
<path d="M459 1344 c-17 -20 -17 -78 0 -98 18 -22 58 -20 71 3 35 66 -27 148
-71 95z"/>
<path d="M1970 1316 c0 -8 -3 -21 -6 -30 -5 -12 0 -16 19 -16 24 0 25 2 16 30
-11 31 -29 41 -29 16z"/>
</g>
</svg>
